<svg xmlns="http://www.w3.org/2000/svg" viewBox="0 0 50 50">
  <path d="M26.9 0c5.1 0 6 0 8.4.1 2.7.1 4.5.5 6.1 1.2 1.6.6 3 1.5 4.4 2.9S48 7 48.7 8.6c.6 1.6 1 3.4 1.2 6.1.1 2.7.1 3.5.1 10.3s0 7.6-.2 10.3c-.1 2.7-.5 4.5-1.2 6.1-.6 1.6-1.5 3-2.9 4.4S43 48 41.4 48.7c-1.6.6-3.4 1-6.1 1.2-2.7.1-3.5.1-10.3.1s-7.6 0-10.3-.2c-2.7-.1-4.5-.5-6.1-1.2-1.6-.6-3-1.5-4.4-2.9S2 43 1.3 41.4C.7 39.8.3 38 .1 35.3 0 32.9 0 32 0 26.9v-3.8c0-5.1 0-6 .1-8.4.1-2.7.5-4.5 1.2-6.1.7-1.6 1.5-3 2.9-4.4S7 2 8.6 1.3C10.2.7 12 .3 14.7.1 17.1 0 18 0 23.1 0h3.8zM25 4.5c-6.7 0-7.5 0-10.1.1-2.4.1-3.8.5-4.6.9-1.2.5-2 1-2.9 1.9S6 9.1 5.5 10.3c-.3.9-.7 2.2-.9 4.6-.1 2.6-.1 3.4-.1 10.1s0 7.5.1 10.1c.1 2.4.5 3.8.9 4.6.5 1.2 1 2 1.9 2.9s1.7 1.4 2.9 1.9c.9.3 2.2.8 4.6.9 2.4.1 3.2.1 8.2.1h3.8c5 0 5.8 0 8.2-.1 2.4-.1 3.8-.5 4.6-.9 1.2-.5 2-1 2.9-1.9s1.4-1.7 1.9-2.9c.3-.9.8-2.2.9-4.6.1-2.4.1-3.2.1-8.2v-3.8c0-5 0-5.8-.1-8.2-.1-2.4-.5-3.8-.9-4.6-.5-1.2-1-2-1.9-2.9S40.9 6 39.7 5.5c-.9-.3-2.2-.8-4.6-.9-2.6-.1-3.4-.1-10.1-.1z" />
  <path d="M25 12.2c7.1 0 12.8 5.7 12.8 12.8 0 7.1-5.7 12.8-12.8 12.8S12.2 32.1 12.2 25c0-7.1 5.7-12.8 12.8-12.8zm0 4.5c-4.6 0-8.3 3.7-8.3 8.3 0 4.6 3.7 8.3 8.3 8.3 4.6 0 8.3-3.7 8.3-8.3 0-4.6-3.7-8.3-8.3-8.3zM41.3 11.7c0 1.7-1.3 3-3 3s-3-1.3-3-3 1.3-3 3-3 3 1.3 3 3" />
</svg>
