<svg xmlns="http://www.w3.org/2000/svg" viewBox="0 0 39 50">
  <path d="M20.4 0C6.9 0 0 9.7 0 17.9c0 4.9 1.9 9.3 5.9 10.9.7.3 1.2 0 1.4-.7.1-.5.4-1.8.6-2.3.2-.7.1-1-.4-1.6-1.2-1.4-1.9-3.1-1.9-5.6 0-7.2 5.4-13.7 14.1-13.7 7.7 0 11.9 4.7 11.9 11 0 8.2-3.6 15.2-9.1 15.2-3 0-5.2-2.5-4.5-5.5.9-3.6 2.5-7.5 2.5-10.1 0-2.3-1.3-4.3-3.9-4.3-3.1 0-5.5 3.2-5.5 7.4 0 2.7.9 4.5.9 4.5S8.9 36.3 8.4 38.6c-1.1 4.6-.2 10.3-.1 10.9 0 .3.5.4.7.2.3-.4 3.9-4.9 5.2-9.4.3-1.3 2-7.9 2-7.9 1 1.9 3.9 3.6 7 3.6 9.2 0 15.4-8.4 15.4-19.6C38.5 7.9 31.4 0 20.4 0" />
</svg>

