<svg xmlns="http://www.w3.org/2000/svg" viewBox="0 0 50 42">
  <path d="M44.9 12.1c0 13.6-10.3 29.2-29.2 29.2-5.8 0-11.2-1.7-15.7-4.6.8.1 1.6.1 2.4.1 4.8 0 9.2-1.6 12.7-4.4-4.5-.1-8.3-3.1-9.6-7.1.6.1 1.3.2 1.9.2.9 0 1.8-.1 2.7-.4-4.6-.9-8.1-5-8.1-10V15c1.4.8 3 1.2 4.6 1.3-2.8-1.8-4.6-5-4.6-8.6 0-1.9.5-3.6 1.4-5.2C8.5 8.7 16 12.8 24.5 13.2c-.2-.8-.3-1.5-.3-2.3C24.2 5.2 28.8.6 34.5.6c2.9 0 5.6 1.2 7.5 3.2 2.3-.5 4.5-1.3 6.5-2.5-.8 2.4-2.4 4.4-4.5 5.7 2.1-.2 4.1-.8 5.9-1.6-1.4 2.1-3.1 3.9-5.1 5.3.1.5.1 1 .1 1.4z" />
</svg>
