<?xml version="1.0" encoding="utf-8"?>
<svg xmlns="http://www.w3.org/2000/svg">
<symbol id="instagram" viewBox="0 0 50 50">
  <path d="M26.9 0c5.1 0 6 0 8.4.1 2.7.1 4.5.5 6.1 1.2 1.6.6 3 1.5 4.4 2.9S48 7 48.7 8.6c.6 1.6 1 3.4 1.2 6.1.1 2.7.1 3.5.1 10.3s0 7.6-.2 10.3c-.1 2.7-.5 4.5-1.2 6.1-.6 1.6-1.5 3-2.9 4.4S43 48 41.4 48.7c-1.6.6-3.4 1-6.1 1.2-2.7.1-3.5.1-10.3.1s-7.6 0-10.3-.2c-2.7-.1-4.5-.5-6.1-1.2-1.6-.6-3-1.5-4.4-2.9S2 43 1.3 41.4C.7 39.8.3 38 .1 35.3 0 32.9 0 32 0 26.9v-3.8c0-5.1 0-6 .1-8.4.1-2.7.5-4.5 1.2-6.1.7-1.6 1.5-3 2.9-4.4S7 2 8.6 1.3C10.2.7 12 .3 14.7.1 17.1 0 18 0 23.1 0h3.8zM25 4.5c-6.7 0-7.5 0-10.1.1-2.4.1-3.8.5-4.6.9-1.2.5-2 1-2.9 1.9S6 9.1 5.5 10.3c-.3.9-.7 2.2-.9 4.6-.1 2.6-.1 3.4-.1 10.1s0 7.5.1 10.1c.1 2.4.5 3.8.9 4.6.5 1.2 1 2 1.9 2.9s1.7 1.4 2.9 1.9c.9.3 2.2.8 4.6.9 2.4.1 3.2.1 8.2.1h3.8c5 0 5.8 0 8.2-.1 2.4-.1 3.8-.5 4.6-.9 1.2-.5 2-1 2.9-1.9s1.4-1.7 1.9-2.9c.3-.9.8-2.2.9-4.6.1-2.4.1-3.2.1-8.2v-3.8c0-5 0-5.8-.1-8.2-.1-2.4-.5-3.8-.9-4.6-.5-1.2-1-2-1.9-2.9S40.9 6 39.7 5.5c-.9-.3-2.2-.8-4.6-.9-2.6-.1-3.4-.1-10.1-.1z"/>
  <path d="M25 12.2c7.1 0 12.8 5.7 12.8 12.8 0 7.1-5.7 12.8-12.8 12.8S12.2 32.1 12.2 25c0-7.1 5.7-12.8 12.8-12.8zm0 4.5c-4.6 0-8.3 3.7-8.3 8.3 0 4.6 3.7 8.3 8.3 8.3 4.6 0 8.3-3.7 8.3-8.3 0-4.6-3.7-8.3-8.3-8.3zM41.3 11.7c0 1.7-1.3 3-3 3s-3-1.3-3-3 1.3-3 3-3 3 1.3 3 3"/>

</symbol>
<symbol id="facebook" viewBox="0 0 28 50">
  <path d="M27.5 9.5h-7.7c-.9 0-1.9 1.2-1.9 2.9v4.9h9.6v9.6h-9.6V50H8.2V26.9H.5v-9.6h7.7v-4.8C8.2 5.6 13.4 0 19.8 0h7.7v9.5z"/>

</symbol>
<symbol id="github" viewBox="0 0 32.6 31.8">
  <path d="M16.3 0C7.3 0 0 7.3 0 16.3c0 7.2 4.7 13.3 11.1 15.5.8.1 1.1-.4 1.1-.8v-2.8c-4.5 1-5.5-2.2-5.5-2.2-.7-1.9-1.8-2.4-1.8-2.4-1.5-1 .1-1 .1-1 1.6.1 2.5 1.7 2.5 1.7 1.5 2.5 3.8 1.8 4.7 1.4.1-1.1.6-1.8 1-2.2-3.6-.4-7.4-1.8-7.4-8.1 0-1.8.6-3.2 1.7-4.4-.1-.3-.7-2 .2-4.2 0 0 1.4-.4 4.5 1.7 1.3-.4 2.7-.5 4.1-.5 1.4 0 2.8.2 4.1.5 3.1-2.1 4.5-1.7 4.5-1.7.9 2.2.3 3.9.2 4.3 1 1.1 1.7 2.6 1.7 4.4 0 6.3-3.8 7.6-7.4 8 .6.5 1.1 1.5 1.1 3V31c0 .4.3.9 1.1.8 6.5-2.2 11.1-8.3 11.1-15.5C32.6 7.3 25.3 0 16.3 0z"/>

</symbol>
<symbol id="linkedin" viewBox="0 0 50 49">
  <path d="M50 48.3H39.3V30.8c0-4.4-1.6-7.4-5.4-7.4-3 0-4.7 2-5.5 4-.3.7-.4 1.7-.4 2.6v18.2H17.3s.1-29.5 0-32.6H28v4.6c1.4-2.2 4-5.4 9.7-5.4 7.1 0 12.3 4.7 12.3 14.7v18.8zM.6 48.3h10.8V15.7H.6zM6 11.3c-3.7 0-6-2.5-6-5.6C0 2.4 2.4 0 6.1 0c3.7 0 5.9 2.4 6 5.6 0 3.2-2.4 5.7-6.1 5.7z"/>

</symbol>
<symbol id="pinterest" viewBox="0 0 39 50">
  <path d="M20.4 0C6.9 0 0 9.7 0 17.9c0 4.9 1.9 9.3 5.9 10.9.7.3 1.2 0 1.4-.7.1-.5.4-1.8.6-2.3.2-.7.1-1-.4-1.6-1.2-1.4-1.9-3.1-1.9-5.6 0-7.2 5.4-13.7 14.1-13.7 7.7 0 11.9 4.7 11.9 11 0 8.2-3.6 15.2-9.1 15.2-3 0-5.2-2.5-4.5-5.5.9-3.6 2.5-7.5 2.5-10.1 0-2.3-1.3-4.3-3.9-4.3-3.1 0-5.5 3.2-5.5 7.4 0 2.7.9 4.5.9 4.5S8.9 36.3 8.4 38.6c-1.1 4.6-.2 10.3-.1 10.9 0 .3.5.4.7.2.3-.4 3.9-4.9 5.2-9.4.3-1.3 2-7.9 2-7.9 1 1.9 3.9 3.6 7 3.6 9.2 0 15.4-8.4 15.4-19.6C38.5 7.9 31.4 0 20.4 0"/>

</symbol>
<symbol id="twitter" viewBox="0 0 50 42">
  <path d="M44.9 12.1c0 13.6-10.3 29.2-29.2 29.2-5.8 0-11.2-1.7-15.7-4.6.8.1 1.6.1 2.4.1 4.8 0 9.2-1.6 12.7-4.4-4.5-.1-8.3-3.1-9.6-7.1.6.1 1.3.2 1.9.2.9 0 1.8-.1 2.7-.4-4.6-.9-8.1-5-8.1-10V15c1.4.8 3 1.2 4.6 1.3-2.8-1.8-4.6-5-4.6-8.6 0-1.9.5-3.6 1.4-5.2C8.5 8.7 16 12.8 24.5 13.2c-.2-.8-.3-1.5-.3-2.3C24.2 5.2 28.8.6 34.5.6c2.9 0 5.6 1.2 7.5 3.2 2.3-.5 4.5-1.3 6.5-2.5-.8 2.4-2.4 4.4-4.5 5.7 2.1-.2 4.1-.8 5.9-1.6-1.4 2.1-3.1 3.9-5.1 5.3.1.5.1 1 .1 1.4z"/>

</symbol></svg>